<svg width="312" height="65" viewBox="0 0 312 65" fill="none" xmlns="http://www.w3.org/2000/svg">
<path d="M294.408 50.264C292.402 50.264 290.802 49.816 289.608 48.92C288.456 48.0667 287.645 47 287.176 45.72C286.664 44.44 286.408 43.16 286.408 41.88C286.408 40.6 286.578 39.6187 286.919 38.936C287.261 38.2533 287.666 37.7413 288.135 37.4C288.647 37.0587 289.117 36.8027 289.543 36.632C290.013 36.4613 290.333 36.2907 290.504 36.12C291.784 34.712 292.957 33.24 294.023 31.704C295.09 30.168 296.029 28.5467 296.84 26.84V26.072C296.84 24.4933 297.096 23.384 297.608 22.744C298.162 22.0613 298.738 21.72 299.336 21.72C299.677 21.72 299.933 21.8053 300.104 21.976C300.274 22.1467 300.359 22.3387 300.359 22.552C300.359 22.7653 300.296 23.1067 300.168 23.576C300.04 24.0453 299.975 24.6427 299.975 25.368C299.975 26.776 300.253 28.312 300.807 29.976C301.362 31.5973 301.917 33.3253 302.471 35.16C303.026 36.952 303.303 38.8293 303.303 40.792C303.303 41.3467 303.261 41.9013 303.176 42.456C303.133 42.968 303.047 43.4587 302.919 43.928C304.413 43.672 305.821 43.0107 307.143 41.944C308.466 40.8347 309.746 39.0853 310.983 36.696L311.56 37.336C310.749 39.6827 309.533 41.4747 307.911 42.712C306.29 43.9067 304.519 44.6533 302.599 44.952C301.917 46.7867 300.829 48.1307 299.336 48.984C297.885 49.8373 296.242 50.264 294.408 50.264ZM294.535 48.024C295.047 48.024 295.73 47.8533 296.583 47.512C297.437 47.1707 298.098 46.296 298.568 44.888C296.776 44.5467 295.175 43.8427 293.767 42.776C292.402 41.7093 291.378 40.6427 290.695 39.576C289.757 39.6187 289.288 40.3653 289.288 41.816C289.288 43.352 289.736 44.7813 290.632 46.104C291.57 47.384 292.871 48.024 294.535 48.024ZM298.888 43.864C298.973 43.4373 299.037 42.9893 299.079 42.52C299.122 42.0507 299.143 41.496 299.143 40.856C299.143 38.8507 298.887 36.8667 298.375 34.904C297.906 32.8987 297.501 31.0213 297.159 29.272C296.178 30.8933 295.133 32.4507 294.023 33.944C292.957 35.3947 291.933 36.6107 290.952 37.592C291.592 38.9573 292.573 40.2373 293.896 41.432C295.261 42.6267 296.925 43.4373 298.888 43.864Z" fill="black"/>
<path d="M272.345 50.264C270.34 50.264 268.74 49.816 267.545 48.92C266.393 48.0667 265.582 47 265.113 45.72C264.601 44.44 264.345 43.16 264.345 41.88C264.345 40.6 264.516 39.6187 264.857 38.936C265.198 38.2533 265.604 37.7413 266.073 37.4C266.585 37.0587 267.054 36.8027 267.481 36.632C267.95 36.4613 268.27 36.2907 268.441 36.12C269.721 34.712 270.894 33.24 271.961 31.704C273.028 30.168 273.966 28.5467 274.777 26.84V26.072C274.777 24.4933 275.033 23.384 275.545 22.744C276.1 22.0613 276.676 21.72 277.273 21.72C277.614 21.72 277.87 21.8053 278.041 21.976C278.212 22.1467 278.297 22.3387 278.297 22.552C278.297 22.7653 278.233 23.1067 278.105 23.576C277.977 24.0453 277.913 24.6427 277.913 25.368C277.913 26.776 278.19 28.312 278.745 29.976C279.3 31.5973 279.854 33.3253 280.409 35.16C280.964 36.952 281.241 38.8293 281.241 40.792C281.241 41.3467 281.198 41.9013 281.113 42.456C281.07 42.968 280.985 43.4587 280.857 43.928C282.35 43.672 283.758 43.0107 285.081 41.944C286.404 40.8347 287.684 39.0853 288.921 36.696L289.497 37.336C288.686 39.6827 287.47 41.4747 285.849 42.712C284.228 43.9067 282.457 44.6533 280.537 44.952C279.854 46.7867 278.766 48.1307 277.273 48.984C275.822 49.8373 274.18 50.264 272.345 50.264ZM272.473 48.024C272.985 48.024 273.668 47.8533 274.521 47.512C275.374 47.1707 276.036 46.296 276.505 44.888C274.713 44.5467 273.113 43.8427 271.705 42.776C270.34 41.7093 269.316 40.6427 268.633 39.576C267.694 39.6187 267.225 40.3653 267.225 41.816C267.225 43.352 267.673 44.7813 268.569 46.104C269.508 47.384 270.809 48.024 272.473 48.024ZM276.825 43.864C276.91 43.4373 276.974 42.9893 277.017 42.52C277.06 42.0507 277.081 41.496 277.081 40.856C277.081 38.8507 276.825 36.8667 276.313 34.904C275.844 32.8987 275.438 31.0213 275.097 29.272C274.116 30.8933 273.07 32.4507 271.961 33.944C270.894 35.3947 269.87 36.6107 268.889 37.592C269.529 38.9573 270.51 40.2373 271.833 41.432C273.198 42.6267 274.862 43.4373 276.825 43.864Z" fill="black"/>
<path d="M251.225 49.816C248.622 49.816 246.659 49.0907 245.337 47.64C244.057 46.232 243.417 44.4827 243.417 42.392C243.417 40.472 243.886 38.4453 244.824 36.312C245.806 34.1787 247.086 32.1733 248.665 30.296C250.286 28.4187 252.057 26.904 253.977 25.752C255.897 24.5573 257.795 23.96 259.672 23.96C260.654 23.96 261.55 24.216 262.361 24.728C263.214 25.24 263.641 26.2853 263.641 27.864C263.641 29.4853 263.15 31.0213 262.168 32.472C261.23 33.88 259.971 35.1387 258.392 36.248C256.856 37.3573 255.15 38.2747 253.273 39C251.438 39.6827 249.603 40.1093 247.768 40.28C247.683 40.7067 247.619 41.112 247.577 41.496C247.534 41.88 247.512 42.2427 247.512 42.584C247.512 43.224 247.576 43.864 247.704 44.504C247.875 45.144 248.152 45.7413 248.536 46.296C248.92 46.808 249.432 47.2133 250.072 47.512C250.755 47.8107 251.587 47.96 252.568 47.96C254.403 47.96 256.217 47.448 258.009 46.424C259.801 45.3573 261.464 43.9707 263 42.264C264.536 40.5573 265.838 38.68 266.905 36.632L267.672 37.208C266.52 39.768 265.049 41.9867 263.257 43.864C261.507 45.7413 259.587 47.192 257.497 48.216C255.449 49.2827 253.358 49.816 251.225 49.816ZM248.089 39.064C249.241 38.68 250.542 38.1253 251.992 37.4C253.443 36.632 254.83 35.736 256.152 34.712C257.518 33.688 258.627 32.5573 259.48 31.32C260.376 30.0827 260.824 28.7813 260.824 27.416C260.824 26.9467 260.739 26.584 260.569 26.328C260.398 26.072 260.035 25.944 259.48 25.944C258.456 25.944 257.369 26.3493 256.217 27.16C255.065 27.928 253.955 28.952 252.889 30.232C251.822 31.512 250.862 32.92 250.008 34.456C249.155 35.992 248.515 37.528 248.089 39.064Z" fill="black"/>
<path d="M234.499 48.92C232.665 48.92 231.342 48.28 230.531 47C229.763 45.7627 229.38 44.2053 229.38 42.328C229.38 40.28 229.763 37.848 230.531 35.032C231.299 32.216 232.302 29.2507 233.54 26.136C234.82 23.0213 236.206 19.992 237.699 17.048C239.193 14.0613 240.686 11.352 242.18 8.91998C243.673 6.48798 245.038 4.54665 246.275 3.09598C247.555 1.64532 248.558 0.919983 249.284 0.919983C249.753 0.919983 250.137 1.19732 250.436 1.75198C250.734 2.26398 250.969 2.90398 251.139 3.67198C251.31 4.39732 251.396 5.05865 251.396 5.65598C251.396 6.80798 251.097 8.32265 250.499 10.2C249.945 12.0347 249.134 14.104 248.068 16.408C247.044 18.6693 245.806 20.9733 244.355 23.32C242.947 25.624 241.39 27.8426 239.684 29.976C238.02 32.1093 236.249 33.944 234.372 35.48C234.116 36.632 233.902 37.7627 233.732 38.872C233.604 39.9387 233.54 40.9627 233.54 41.944C233.54 43.608 233.774 44.8453 234.243 45.656C234.713 46.4666 235.417 46.872 236.355 46.872C237.507 46.872 238.638 46.36 239.747 45.336C240.899 44.312 241.966 43.032 242.947 41.496C243.971 39.9173 244.846 38.296 245.572 36.632L246.531 37.144C244.825 40.7706 242.969 43.6507 240.964 45.784C238.958 47.8747 236.803 48.92 234.499 48.92ZM234.947 33.304C236.441 31.8107 237.891 30.104 239.299 28.184C240.707 26.2213 242.009 24.1946 243.204 22.104C244.441 20.0133 245.529 17.9866 246.467 16.024C247.406 14.0613 248.131 12.312 248.643 10.776C249.155 9.19732 249.411 7.98132 249.411 7.12798C249.411 6.70132 249.347 6.42398 249.219 6.29598C249.134 6.16798 249.049 6.10398 248.964 6.10398C248.622 6.10398 248.025 6.65865 247.172 7.76798C246.361 8.83465 245.401 10.2853 244.292 12.12C243.182 13.9546 242.052 16.0453 240.9 18.392C239.748 20.7387 238.638 23.192 237.572 25.752C236.548 28.312 235.673 30.8293 234.947 33.304Z" fill="black"/>
<path d="M210.229 49.048C208.394 49.048 207.092 48.472 206.324 47.32C205.556 46.2107 205.173 44.8453 205.173 43.224C205.173 41.9013 205.386 40.536 205.812 39.128C206.239 37.72 206.794 36.3973 207.477 35.16C208.202 33.9227 208.991 32.92 209.844 32.152C210.74 31.384 211.637 31 212.533 31C212.746 31 212.959 31.0427 213.173 31.128C213.429 31.1706 213.663 31.2347 213.876 31.32C213.492 31.6613 213.023 32.3013 212.469 33.24C211.957 34.136 211.466 35.1813 210.997 36.376C210.527 37.528 210.122 38.68 209.781 39.832C209.482 40.984 209.333 41.9653 209.333 42.776C209.333 44.056 209.546 44.9947 209.973 45.592C210.399 46.1467 210.954 46.424 211.637 46.424C212.533 46.424 213.599 45.9547 214.837 45.016C216.074 44.0347 217.29 42.7973 218.484 41.304C217.29 40.3227 216.351 39.0427 215.669 37.464C215.029 35.8427 214.708 34.2 214.708 32.536C214.708 31.128 214.943 29.8053 215.413 28.568C215.925 27.3307 216.65 26.3493 217.589 25.624C218.527 24.856 219.658 24.472 220.98 24.472C222.73 24.472 223.903 24.9413 224.501 25.88C225.098 26.8186 225.396 27.992 225.396 29.4C225.396 31.064 224.991 32.92 224.18 34.968C223.37 36.9733 222.346 38.9147 221.109 40.792C221.877 41.2187 222.687 41.432 223.54 41.432C224.223 41.432 224.991 41.304 225.844 41.048C226.698 40.7493 227.53 40.2587 228.34 39.576C229.194 38.8933 229.877 37.976 230.389 36.824L231.156 37.464C230.303 39.4693 229.087 40.8987 227.508 41.752C225.972 42.5627 224.5 42.968 223.092 42.968C222.538 42.968 222.004 42.9253 221.492 42.84C220.98 42.712 220.49 42.5413 220.021 42.328C218.57 44.248 216.97 45.848 215.221 47.128C213.514 48.408 211.85 49.048 210.229 49.048ZM219.637 39.64C220.703 38.0613 221.578 36.4186 222.26 34.712C222.986 32.9626 223.348 31.32 223.348 29.784C223.348 28.5466 223.157 27.6507 222.773 27.096C222.431 26.4987 221.983 26.2 221.428 26.2C220.575 26.2 219.701 26.8187 218.805 28.056C217.909 29.2933 217.46 30.8507 217.46 32.728C217.46 33.9653 217.631 35.224 217.973 36.504C218.357 37.7413 218.911 38.7867 219.637 39.64Z" fill="black"/>
<path d="M181.505 52.568C180.439 52.568 179.436 52.2693 178.497 51.672C177.559 51.0747 177.089 50.3067 177.089 49.368C177.089 48.8987 177.196 48.3227 177.41 47.64C177.623 47 177.815 46.4027 177.986 45.848C179.351 41.6667 180.631 37.7627 181.826 34.136C183.02 30.5093 184.215 26.9893 185.41 23.576C186.604 20.1626 187.863 16.7493 189.186 13.336C190.551 9.92265 192.066 6.35998 193.73 2.64798C192.108 2.94665 190.658 3.39465 189.378 3.99198C188.14 4.54665 187.138 5.05865 186.37 5.52798C185.602 5.95465 185.089 6.16798 184.833 6.16798C184.663 6.16798 184.407 6.08265 184.066 5.91198C183.767 5.69865 183.49 5.46398 183.234 5.20798C182.978 4.90932 182.85 4.65332 182.85 4.43998C183.959 3.97065 185.26 3.45865 186.753 2.90398C188.289 2.34932 189.932 1.87998 191.682 1.49598C193.431 1.11198 195.201 0.919983 196.993 0.919983C198.871 0.919983 200.769 1.17598 202.689 1.68798C204.652 2.19998 206.444 2.98932 208.066 4.05598C209.687 5.07998 210.988 6.35998 211.969 7.89598C212.951 9.43198 213.441 11.224 213.441 13.272C213.441 15.4907 212.951 17.4107 211.969 19.032C210.988 20.6107 209.687 21.9547 208.066 23.064C206.444 24.1307 204.695 25.0053 202.818 25.688C200.94 26.328 199.063 26.84 197.186 27.224C195.351 27.5653 193.708 27.8 192.258 27.928C190.807 28.0133 189.74 28.056 189.057 28.056H188.417C187.137 32.4507 185.9 36.7813 184.706 41.048C183.554 45.3147 182.487 49.1547 181.505 52.568ZM188.674 27.032C191.02 26.904 193.388 26.52 195.777 25.88C198.209 25.24 200.428 24.3226 202.434 23.128C204.439 21.8907 206.06 20.376 207.298 18.584C208.535 16.7493 209.154 14.616 209.154 12.184C209.154 9.87998 208.599 8.00265 207.49 6.55198C206.423 5.10132 204.994 4.03465 203.202 3.35198C201.452 2.62665 199.575 2.26398 197.57 2.26398C195.991 5.37865 194.455 9.11198 192.962 13.464C191.468 17.816 190.039 22.3386 188.674 27.032Z" fill="black"/>
<path d="M138.543 64.92C138.116 64.92 137.626 64.7707 137.071 64.472C136.516 64.216 136.047 63.6827 135.663 62.872C135.236 62.0613 135.023 60.8667 135.023 59.288C135.023 57.4107 135.343 54.9573 135.983 51.928C136.623 48.9413 137.498 45.6347 138.607 42.008C139.716 38.3813 140.996 34.6693 142.447 30.872C143.898 27.032 145.455 23.3413 147.119 19.8C148.826 16.216 150.554 13.016 152.303 10.2C154.095 7.34132 155.844 5.07998 157.551 3.41598C159.258 1.75198 160.879 0.919983 162.415 0.919983C163.311 0.919983 163.887 1.19732 164.143 1.75198C164.442 2.30665 164.591 2.96798 164.591 3.73598C164.591 5.57065 164.079 7.57598 163.055 9.75198C162.074 11.928 160.751 14.1253 159.087 16.344C157.423 18.52 155.588 20.6106 153.583 22.616C151.578 24.5786 149.551 26.264 147.503 27.672C147.29 28.184 147.076 28.7173 146.863 29.272C146.692 29.784 146.5 30.3173 146.287 30.872C146.756 30.9573 147.119 31.2133 147.375 31.64C147.674 32.024 147.844 32.4506 147.887 32.92C148.186 34.84 148.506 36.568 148.847 38.104C149.188 39.5973 149.7 40.7707 150.383 41.624C151.108 42.4773 152.132 42.904 153.455 42.904C154.948 42.904 156.207 42.3707 157.231 41.304C158.255 40.1947 159.364 38.6373 160.559 36.632L161.519 37.272C160.452 39.832 159.087 41.688 157.423 42.84C155.802 43.992 154.372 44.568 153.135 44.568C152.367 44.568 151.556 44.376 150.703 43.992C149.892 43.608 149.124 43.096 148.399 42.456C148.399 45.144 148.1 47.8107 147.503 50.456C146.948 53.1013 146.202 55.512 145.263 57.688C144.324 59.864 143.279 61.6133 142.127 62.936C140.975 64.2587 139.78 64.92 138.543 64.92ZM140.207 61.848C140.676 61.848 141.21 61.4213 141.807 60.568C142.404 59.7147 142.98 58.584 143.535 57.176C144.132 55.8107 144.666 54.296 145.135 52.632C145.604 50.968 145.988 49.304 146.287 47.64C146.586 45.976 146.735 44.4827 146.735 43.16C146.735 41.8373 146.564 40.6427 146.223 39.576C145.882 38.4667 145.327 37.1653 144.559 35.672C143.492 38.872 142.532 41.9653 141.679 44.952C140.826 47.9387 140.164 50.6267 139.695 53.016C139.226 55.4053 138.991 57.3253 138.991 58.776C138.991 60.824 139.396 61.848 140.207 61.848ZM148.527 25.048C151.3 22.488 153.69 19.928 155.695 17.368C157.743 14.7653 159.322 12.4613 160.431 10.456C161.54 8.40798 162.095 6.95732 162.095 6.10398C162.095 5.50665 161.796 5.20798 161.199 5.20798C160.09 5.20798 158.831 6.12532 157.423 7.95998C156.015 9.75198 154.543 12.1413 153.007 15.128C151.471 18.1146 149.978 21.4213 148.527 25.048Z" fill="black"/>
<path d="M114.572 50.008C113.249 50.008 112.14 49.56 111.244 48.664C110.305 47.8107 109.836 46.488 109.836 44.696C109.836 43.16 110.177 41.5173 110.86 39.768C111.543 37.976 112.481 36.2267 113.676 34.52C114.871 32.7707 116.215 31.192 117.708 29.784C119.244 28.3333 120.844 27.1813 122.508 26.328C124.215 25.4747 125.9 25.048 127.564 25.048C129.228 25.048 130.615 25.496 131.724 26.392C132.833 27.2453 133.388 28.3973 133.388 29.848C133.388 30.9147 133.089 31.64 132.492 32.024C131.937 32.408 131.191 32.6 130.252 32.6C130.337 32.2587 130.401 31.896 130.444 31.512C130.529 31.0853 130.572 30.7013 130.572 30.36C130.572 29.3787 130.337 28.5467 129.868 27.864C129.399 27.1387 128.588 26.776 127.436 26.776C126.241 26.776 125.025 27.2027 123.788 28.056C122.551 28.8667 121.356 29.976 120.204 31.384C119.052 32.7493 118.028 34.2427 117.132 35.864C116.236 37.4853 115.532 39.0853 115.02 40.664C114.508 42.2427 114.252 43.6507 114.252 44.888C114.252 46.552 114.828 47.384 115.98 47.384C116.961 47.384 118.028 46.936 119.18 46.04C120.332 45.1013 121.505 43.928 122.7 42.52C123.937 41.0693 125.111 39.576 126.22 38.04C127.329 36.504 128.311 35.096 129.164 33.816C129.335 33.56 129.441 33.432 129.484 33.432C129.74 33.4747 130.06 33.56 130.444 33.688C130.871 33.816 131.233 33.9867 131.532 34.2C131.831 34.4133 131.98 34.6907 131.98 35.032C131.98 35.416 131.788 35.9493 131.404 36.632C131.02 37.272 130.593 38.0187 130.124 38.872C129.655 39.7253 129.228 40.6 128.844 41.496C128.46 42.3493 128.268 43.16 128.268 43.928C128.268 44.568 128.439 45.208 128.78 45.848C129.121 46.4453 129.676 46.744 130.444 46.744C131.596 46.744 133.111 45.912 134.988 44.248C136.865 42.5413 138.764 40.0027 140.684 36.632L141.324 37.272C140.428 39.576 139.276 41.6027 137.868 43.352C136.46 45.1013 134.945 46.4667 133.324 47.448C131.745 48.4293 130.188 48.92 128.652 48.92C127.073 48.92 125.9 48.4507 125.132 47.512C124.407 46.5733 124.044 45.5493 124.044 44.44C124.044 44.184 124.065 43.9067 124.108 43.608C124.151 43.2667 124.193 42.9253 124.236 42.584C122.401 45.0587 120.716 46.9147 119.18 48.152C117.687 49.3893 116.151 50.008 114.572 50.008Z" fill="black"/>
<path d="M100.322 48.664C98.8713 48.664 97.7193 48.28 96.866 47.512C96.0553 46.744 95.65 45.7413 95.65 44.504C95.65 43.224 95.9487 41.88 96.546 40.472C97.1433 39.064 97.7193 37.6773 98.274 36.312C98.8713 34.904 99.17 33.6453 99.17 32.536C99.17 31.1707 98.7647 30.168 97.954 29.528C97.186 28.8453 96.3967 28.2267 95.586 27.672C94.6047 30.1893 93.5807 32.5787 92.514 34.84C91.4473 37.1013 90.5727 38.808 89.89 39.96L89.314 38.872C89.9113 37.7627 90.6793 36.1413 91.618 34.008C92.5993 31.8747 93.5593 29.4427 94.498 26.712C94.0713 26.2853 93.858 25.7733 93.858 25.176C93.858 23.896 94.2207 22.8507 94.946 22.04C95.6713 21.2293 96.2047 20.824 96.546 20.824C97.0153 20.824 97.2713 21.0373 97.314 21.464C97.3993 21.848 97.442 22.1467 97.442 22.36C97.442 22.5733 97.314 23 97.058 23.64C96.8447 24.2373 96.738 24.6 96.738 24.728C96.738 25.3253 97.058 25.88 97.698 26.392C98.3807 26.8613 99.1487 27.416 100.002 28.056C100.855 28.6533 101.602 29.4 102.242 30.296C102.925 31.1493 103.266 32.2587 103.266 33.624C103.266 34.904 102.989 36.2053 102.434 37.528C101.922 38.8507 101.389 40.1093 100.834 41.304C100.322 42.4987 100.066 43.544 100.066 44.44C100.066 45.208 100.258 45.72 100.642 45.976C101.026 46.232 101.474 46.36 101.986 46.36C103.01 46.36 104.055 46.04 105.122 45.4C106.231 44.76 107.298 43.9493 108.322 42.968C109.346 41.9867 110.263 40.9627 111.074 39.896C111.885 38.7867 112.482 37.7627 112.866 36.824L113.698 37.464C112.887 39.256 111.778 41.0267 110.37 42.776C108.962 44.4827 107.383 45.8907 105.634 47C103.927 48.1093 102.157 48.664 100.322 48.664Z" fill="black"/>
<path d="M61.8205 49.432C61.0098 49.432 60.3698 48.7493 59.9005 47.384C59.4312 46.0187 59.1965 44.4827 59.1965 42.776C59.1965 40.728 59.5378 38.296 60.2205 35.48C60.9032 32.664 61.7992 29.6987 62.9085 26.584C64.0178 23.4693 65.2552 20.4187 66.6205 17.432C68.0285 14.4453 69.4578 11.736 70.9085 9.30399C72.3592 6.87199 73.7245 4.93065 75.0045 3.47999C76.2845 2.02932 77.3938 1.30399 78.3325 1.30399C79.1005 1.30399 79.6338 1.77332 79.9325 2.71199C80.2738 3.60799 80.4445 4.48265 80.4445 5.33599C80.4445 6.53065 80.1672 7.98132 79.6125 9.68799C79.1005 11.3947 78.3752 13.2293 77.4365 15.192C76.4978 17.112 75.4098 19.0107 74.1725 20.888C72.9352 22.7653 71.5912 24.4933 70.1405 26.072C68.6898 27.608 67.2178 28.824 65.7245 29.72C65.2125 30.9573 64.7645 32.344 64.3805 33.88C64.0392 35.416 63.7832 36.9307 63.6125 38.424C63.4418 39.8747 63.3565 41.176 63.3565 42.328C63.3565 42.7973 63.3565 43.2027 63.3565 43.544C63.3992 43.8853 63.4418 44.2053 63.4845 44.504C64.0818 42.7547 64.7218 41.0693 65.4045 39.448C66.1298 37.784 66.8978 36.2693 67.7085 34.904C68.5192 33.496 69.3725 32.28 70.2685 31.256C71.2072 30.1893 72.1885 29.3787 73.2125 28.824C74.2365 28.2267 75.3245 27.928 76.4765 27.928C77.6712 27.928 78.6098 28.2267 79.2925 28.824C80.0178 29.3787 80.5298 30.104 80.8285 31C81.1698 31.8533 81.3405 32.7493 81.3405 33.688C81.3405 35.0107 81.1058 36.2907 80.6365 37.528C80.2098 38.7653 79.7618 39.96 79.2925 41.112C78.8232 42.264 78.5885 43.3733 78.5885 44.44C78.5885 45.2933 78.7592 45.912 79.1005 46.296C79.4845 46.68 79.9538 46.872 80.5085 46.872C81.4898 46.872 82.5778 46.4027 83.7725 45.464C85.0098 44.5253 86.2258 43.288 87.4205 41.752C88.6152 40.1733 89.6392 38.4667 90.4925 36.632L91.3245 37.4C90.4285 39.4907 89.3405 41.3893 88.0605 43.096C86.7805 44.76 85.3725 46.0827 83.8365 47.064C82.3005 48.0453 80.7005 48.536 79.0365 48.536C77.5858 48.536 76.4765 48.152 75.7085 47.384C74.9832 46.616 74.6205 45.656 74.6205 44.504C74.6205 43.608 74.7912 42.6053 75.1325 41.496C75.4738 40.3867 75.7938 39.256 76.0925 38.104C76.4338 36.952 76.6045 35.864 76.6045 34.84C76.6045 33.7307 76.3698 32.9413 75.9005 32.472C75.4312 32.0027 74.8552 31.768 74.1725 31.768C73.1058 31.768 72.1458 32.1947 71.2925 33.048C70.4392 33.9013 69.6498 35.0107 68.9245 36.376C68.2418 37.6987 67.5805 39.1067 66.9405 40.6C66.3432 42.0933 65.7672 43.5227 65.2125 44.888C64.6578 46.2107 64.1032 47.2987 63.5485 48.152C62.9938 49.0053 62.4178 49.432 61.8205 49.432ZM66.5565 27.224C67.7512 26.2853 68.9032 25.0907 70.0125 23.64C71.1645 22.1893 72.2312 20.6533 73.2125 19.032C74.1938 17.368 75.0685 15.7467 75.8365 14.168C76.6045 12.5893 77.2018 11.16 77.6285 9.87999C78.0552 8.59999 78.2685 7.63999 78.2685 6.99999C78.2685 6.78665 78.2472 6.65865 78.2045 6.61599C78.1618 6.53065 78.0978 6.48799 78.0125 6.48799C77.7138 6.48799 77.0952 7.08532 76.1565 8.27999C75.2605 9.43199 74.2152 10.9893 73.0205 12.952C71.8258 14.9147 70.6525 17.1333 69.5005 19.608C68.3485 22.0827 67.3672 24.6213 66.5565 27.224Z" fill="black"/>
<path d="M43.47 50.264C41.4647 50.264 39.8647 49.816 38.67 48.92C37.518 48.0667 36.7073 47 36.238 45.72C35.726 44.44 35.47 43.16 35.47 41.88C35.47 40.6 35.6407 39.6187 35.982 38.936C36.3233 38.2533 36.7287 37.7413 37.198 37.4C37.71 37.0587 38.1793 36.8027 38.606 36.632C39.0753 36.4613 39.3953 36.2907 39.566 36.12C40.846 34.712 42.0193 33.24 43.086 31.704C44.1527 30.168 45.0913 28.5467 45.902 26.84V26.072C45.902 24.4933 46.158 23.384 46.67 22.744C47.2247 22.0613 47.8007 21.72 48.398 21.72C48.7393 21.72 48.9953 21.8053 49.166 21.976C49.3367 22.1467 49.422 22.3387 49.422 22.552C49.422 22.7653 49.358 23.1067 49.23 23.576C49.102 24.0453 49.038 24.6427 49.038 25.368C49.038 26.776 49.3153 28.312 49.87 29.976C50.4247 31.5973 50.9793 33.3253 51.534 35.16C52.0887 36.952 52.366 38.8293 52.366 40.792C52.366 41.3467 52.3233 41.9013 52.238 42.456C52.1953 42.968 52.11 43.4587 51.982 43.928C53.4753 43.672 54.8833 43.0107 56.206 41.944C57.5287 40.8347 58.8087 39.0853 60.046 36.696L60.622 37.336C59.8113 39.6827 58.5953 41.4747 56.974 42.712C55.3527 43.9067 53.582 44.6533 51.662 44.952C50.9793 46.7867 49.8913 48.1307 48.398 48.984C46.9473 49.8373 45.3047 50.264 43.47 50.264ZM43.598 48.024C44.11 48.024 44.7927 47.8533 45.646 47.512C46.4993 47.1707 47.1607 46.296 47.63 44.888C45.838 44.5467 44.238 43.8427 42.83 42.776C41.4647 41.7093 40.4407 40.6427 39.758 39.576C38.8193 39.6187 38.35 40.3653 38.35 41.816C38.35 43.352 38.798 44.7813 39.694 46.104C40.6327 47.384 41.934 48.024 43.598 48.024ZM47.95 43.864C48.0353 43.4373 48.0993 42.9893 48.142 42.52C48.1847 42.0507 48.206 41.496 48.206 40.856C48.206 38.8507 47.95 36.8667 47.438 34.904C46.9687 32.8987 46.5633 31.0213 46.222 29.272C45.2407 30.8933 44.1953 32.4507 43.086 33.944C42.0193 35.3947 40.9953 36.6107 40.014 37.592C40.654 38.9573 41.6353 40.2373 42.958 41.432C44.3233 42.6267 45.9873 43.4373 47.95 43.864Z" fill="black"/>
<path d="M3.08799 52.568C2.14932 52.0133 1.55199 51.416 1.29599 50.776C1.03999 50.1787 0.911987 49.6667 0.911987 49.24C0.911987 48.0453 1.33865 46.424 2.19199 44.376C3.08799 42.328 4.26132 40.0027 5.71199 37.4C7.20532 34.7547 8.84799 32.024 10.64 29.208C9.06132 29.08 7.71732 28.9947 6.60799 28.952C5.49865 28.9093 4.53865 28.888 3.72799 28.888H1.48799C1.95732 27.6507 2.76799 26.7973 3.91999 26.328C5.11465 25.816 6.52265 25.56 8.14399 25.56C8.86932 25.56 9.61599 25.6027 10.384 25.688C11.152 25.7733 11.9413 25.88 12.752 26.008C14.928 22.7226 17.1467 19.544 19.408 16.472C21.712 13.3573 23.8453 10.6053 25.808 8.21598C27.8133 5.78398 29.4773 3.94932 30.8 2.71198C32.0373 1.51732 33.0613 0.919983 33.872 0.919983C34.3413 0.919983 34.8533 1.11198 35.408 1.49598C36.0053 1.83732 36.624 2.32798 37.264 2.96798C36.8373 3.30932 36.2827 4.22665 35.6 5.71998C34.96 7.17065 34.256 9.00532 33.488 11.224C32.7627 13.4426 32.0373 15.8746 31.312 18.52C30.5867 21.1653 29.904 23.8747 29.264 26.648C28.6667 29.3787 28.176 31.9813 27.792 34.456C27.4507 36.9307 27.28 39.1067 27.28 40.984C27.28 42.6053 27.4507 43.864 27.792 44.76C28.176 45.656 28.7947 46.104 29.648 46.104C30.7573 46.104 32.016 45.336 33.424 43.8C34.832 42.264 36.368 39.8747 38.032 36.632L38.672 37.272C37.392 40.6853 35.7493 43.48 33.744 45.656C31.7813 47.832 29.7333 48.92 27.6 48.92C25.8507 48.92 24.5707 48.152 23.76 46.616C22.992 45.0373 22.608 42.9467 22.608 40.344C22.608 38.9787 22.6933 37.4853 22.864 35.864C23.0773 34.2426 23.3547 32.5573 23.696 30.808C21.8187 30.5093 20.0907 30.2747 18.512 30.104C16.976 29.8907 15.5467 29.6987 14.224 29.528C12.2187 33.24 10.256 37.0587 8.33599 40.984C6.45865 44.9093 4.70932 48.7707 3.08799 52.568ZM24.144 28.568C24.784 25.752 25.5307 22.9147 26.384 20.056C27.2373 17.1547 28.1333 14.4027 29.072 11.8C30.0533 9.19732 30.9707 6.91465 31.824 4.95198C30.5013 5.76265 28.9653 7.21332 27.216 9.30398C25.5093 11.352 23.696 13.8693 21.776 16.856C19.856 19.8 17.8933 23.0427 15.888 26.584C17.3387 26.8827 18.768 27.224 20.176 27.608C21.6267 27.9493 22.9493 28.2693 24.144 28.568Z" fill="black"/>
</svg>
